<?xml version="1.0" encoding="utf-8"?>
<!-- Generator: Adobe Illustrator 25.2.0, SVG Export Plug-In . SVG Version: 6.00 Build 0)  -->
<svg version="1.1" id="图层_1" xmlns="http://www.w3.org/2000/svg" xmlns:xlink="http://www.w3.org/1999/xlink" x="0px" y="0px"
	 viewBox="0 0 637 706" style="enable-background:new 0 0 637 706;" xml:space="preserve">
<style type="text/css">
	.st0{fill:#D99F6A;stroke:#231815;stroke-width:3;stroke-miterlimit:10;}
	.st1{fill:#DDB26A;stroke:#231815;stroke-width:3;stroke-miterlimit:10;}
	.st2{fill:none;stroke:#231815;stroke-width:5;stroke-miterlimit:10;}
	.st3{fill:none;stroke:#231815;stroke-width:3;stroke-miterlimit:10;}
	.st4{fill:#FFFFFF;stroke:#231815;stroke-width:2;stroke-miterlimit:10;}
</style>
<rect x="76.8" y="462.2" class="st0" width="117.9" height="184.4"/>
<polygon class="st0" points="194.7,462.2 231.6,422.9 231.6,588.4 194.7,646.6 "/>
<polygon class="st1" points="76.8,462.2 117.3,422.9 231.6,422.9 194.7,462.2 "/>
<path class="st2" d="M110.7,461.9c11.2-31.8,38-104.3,52-101.1c12.6,2.8,9.5,66.1,6.9,101.5"/>
<path class="st2" d="M153,420.8c0-31.4,4.1-56.1,12.2-57.5c8.4-1.4,21.2,22.6,32,57.8"/>
<line class="st3" x1="141.3" y1="462.4" x2="136.1" y2="491.7"/>
<polygon class="st4" points="117.8,489.3 153,495.5 140.7,571.9 104.4,565.5 "/>
</svg>
